<svg width="35" height="35" viewBox="0 0 35 35" fill="none" xmlns="http://www.w3.org/2000/svg">
<path d="M17.5001 11.5063L15.9397 14.2188C15.5897 14.8168 15.8813 15.3126 16.5668 15.3126H18.4188C19.1188 15.3126 19.3959 15.8084 19.0459 16.4063L17.5001 19.1188" stroke="#26B5C5" stroke-width="1.5" stroke-linecap="round" stroke-linejoin="round"/>
<path d="M12.1041 26.3083V24.6166C8.7499 22.5895 5.99365 18.6374 5.99365 14.4374C5.99365 7.21868 12.6291 1.56035 20.1249 3.19368C23.4207 3.92285 26.3082 6.11035 27.8103 9.1291C30.8582 15.2541 27.6499 21.7583 22.9395 24.602V26.2937C22.9395 26.7166 23.0999 27.6937 21.5395 27.6937H13.5041C11.8999 27.7083 12.1041 27.0812 12.1041 26.3083Z" stroke="#26B5C5" stroke-width="1.5" stroke-linecap="round" stroke-linejoin="round"/>
<path d="M12.396 32.0833C15.7356 31.1353 19.2647 31.1353 22.6043 32.0833" stroke="#26B5C5" stroke-width="1.5" stroke-linecap="round" stroke-linejoin="round"/>
</svg>
